<svg xmlns="http://www.w3.org/2000/svg" viewBox="0 0 20 20" fill="none">
  <path d="M14.18 0c.07 1.04-.3 2.06-.92 2.8-.63.76-1.63 1.35-2.63 1.27-.09-1 .35-2.04.94-2.74C12.18.56 13.22.04 14.18 0z" fill="#1D1D1F"/>
  <path d="M17.5 6.7c-.12.07-2.28 1.31-2.25 3.91.03 3.1 2.72 4.13 2.75 4.14-.02.08-.43 1.47-1.43 2.9-.86 1.24-1.76 2.47-3.14 2.5-1.35.03-1.79-.8-3.34-.8-1.56 0-2.05.77-3.33.83-1.34.05-2.36-1.33-3.23-2.56C1.87 15.07.5 11.4 1.86 8.86c.68-1.25 1.9-2.04 3.22-2.07 1.29-.02 2.5.87 3.29.87.79 0 2.27-1.07 3.82-.91.65.03 2.48.26 3.65 1.96l-.34.07z" fill="#1D1D1F"/>
</svg>
