<svg width="24" height="24" viewBox="0 0 24 24" fill="none" xmlns="http://www.w3.org/2000/svg">
  <path
    d="M7 2C7.55228 2 8 2.44772 8 3V4H16V3C16 2.44772 16.4477 2 17 2C17.5523 2 18 2.44772 18 3V4H19.5C20.8807 4 22 5.11929 22 6.5V18.5C22 19.8807 20.8807 21 19.5 21H4.5C3.11929 21 2 19.8807 2 18.5V6.5C2 5.11929 3.11929 4 4.5 4H6V3C6 2.44772 6.44772 2 7 2ZM19.5 10H4.5V18.5C4.5 18.7761 4.72386 19 5 19H19C19.2761 19 19.5 18.7761 19.5 18.5V10ZM5 6C4.72386 6 4.5 6.22386 4.5 6.5V8H19.5V6.5C19.5 6.22386 19.2761 6 19 6H5ZM7 13H10V16H7V13ZM12 13H15V16H12V13Z"
    fill="currentColor"
  />
</svg>
