<svg xmlns="http://www.w3.org/2000/svg" viewBox="0 0 20 20" fill="none">
  <path d="M19.6 10.23c0-.68-.06-1.36-.18-2H10v3.79h5.39a4.6 4.6 0 0 1-2 3.02v2.5h3.22c1.89-1.74 2.99-4.3 2.99-7.31z" fill="#4285F4"/>
  <path d="M10 20c2.7 0 4.96-.89 6.61-2.43l-3.22-2.5c-.9.6-2.04.96-3.39.96-2.6 0-4.81-1.76-5.6-4.12H1.08v2.58A10 10 0 0 0 10 20z" fill="#34A853"/>
  <path d="M4.4 11.91A6.02 6.02 0 0 1 4.08 10c0-.66.11-1.3.32-1.91V5.51H1.08A10 10 0 0 0 0 10c0 1.61.39 3.14 1.08 4.49l3.32-2.58z" fill="#FBBC05"/>
  <path d="M10 3.96c1.47 0 2.79.51 3.82 1.49l2.85-2.85C14.96.99 12.7 0 10 0A10 10 0 0 0 1.08 5.51l3.32 2.58C5.19 5.72 7.4 3.96 10 3.96z" fill="#EA4335"/>
</svg>
